:SAMPLES-PER-SECOND 30
:FRAME-RANGE 1-3535
:FULLY-SPECIFIED
:DEGREES
995
root  -52.1967 38.2135 -7.35979 170.281 63.7438 172.528
RightUpLeg  -15.0155 -10.8138 -9.13034
RightLeg  63.5081 -4.15933 -9.59027
RightFoot  -0.311295 -1.11784 11.519
RightToes  1.22775e-009 1.2921e-014 -6.02303e-014
Spine  8.90323 0.0183986 -6.21928
Spine1  1.07482 -0.494294 -1.62662
HEad  3.11362 -35.1726 3.06087
LeftShoulder1  0.975467 0.6944 -28.6177
LeftArm  -10.4241 -0.619886 -21.144
LeftForeArm  11.6083 0.751798 -16.4484
LeftHand  0.391005 -1.88554 -6.09335
RightShoulder  5.07562 4.95101 52.5612
RightArm  44.9552 -7.63651 16.3138
RightForeArm  -4.72917 14.4387 13.2899
RightHand  0.264106 5.27723 2.55746
LeftUpLeg  -15.2313 12.7982 2.08657
LeftLeg  26.275 -3.39143 -1.46615
LeftFoot  -8.08478 0.301496 -8.89193
LeftToes  2.52163e-011 5.65494e-011 -1.09494e-012
996
root  -51.5789 38.2938 -7.86285 171.817 64.0446 173.761
RightUpLeg  -19.5682 -12.2302 -7.79141
RightLeg  61.2396 -3.45593 -7.31662
RightFoot  -1.06011 -1.15943 12.7582
RightToes  1.22775e-009 1.2921e-014 -6.02303e-014
Spine  9.41112 -0.239343 -6.58149
Spine1  0.743449 -0.824848 -1.2594
HEad  1.62812 -34.4427 3.96388
LeftShoulder1  1.02805 0.510175 -28.2311
LeftArm  -10.827 -5.04025 -20.9756
LeftForeArm  12.4325 0.269078 -16.3474
LeftHand  0.368775 -2.0184 -5.62289
RightShoulder  4.66536 4.40805 51.6614
RightArm  55.4001 -10.3404 16.8674
RightForeArm  -13.6992 20.3297 8.13349
RightHand  0.307706 5.25689 3.03793
LeftUpLeg  -14.4387 12.9682 2.67236
LeftLeg  26.7193 -3.68961 -1.65963
LeftFoot  -9.82552 0.178126 -9.00938
LeftToes  2.52163e-011 5.65494e-011 -1.09494e-012
997
root  -50.9602 38.3771 -8.34642 173.379 64.1067 175.067
RightUpLeg  -23.159 -12.6851 -6.6461
RightLeg  55.7362 -3.42882 -5.82046
RightFoot  -1.72656 -1.07734 12.6217
RightToes  1.22775e-009 1.2921e-014 -6.02303e-014
Spine  9.94178 -0.614554 -6.75546
Spine1  0.365141 -1.24397 -0.576216
HEad  0.36731 -33.6927 4.6729
LeftShoulder1  1.07621 0.332497 -27.8178
LeftArm  -11.1087 -9.19657 -20.8581
LeftForeArm  13.065 -0.700893 -16.1858
LeftHand  0.351786 -2.36025 -5.08964
RightShoulder  4.35943 4.02012 50.7864
RightArm  55.9685 -12.602 16.9993
RightForeArm  -15.637 24.7085 6.04988
RightHand  0.369851 4.50241 4.04708
LeftUpLeg  -13.5903 13.1336 3.22853
LeftLeg  26.9242 -3.86223 -1.77236
LeftFoot  -11.2497 0.0745957 -9.152
LeftToes  2.52163e-011 5.65494e-011 -1.09494e-012
998
root  -50.3703 38.3653 -8.80291 175.014 63.6465 176.516
RightUpLeg  -25.6204 -12.774 -6.13002
RightLeg  47.7292 -4.27182 -5.34562
RightFoot  -2.38297 -1.02668 12.8475
RightToes  1.22775e-009 1.2921e-014 -6.02303e-014
Spine  10.5949 -1.12546 -6.45232
Spine1  0.107948 -1.75305 0.0154163
HEad  -1.0225 -33.4051 5.40444
LeftShoulder1  1.13118 0.139108 -27.4947
LeftArm  -10.6366 -13.6678 -20.6493
LeftForeArm  12.7024 -1.98539 -16.0861
LeftHand  0.345393 -2.61789 -4.85831
RightShoulder  4.02752 3.53226 50.1892
RightArm  51.457 -14.0715 16.9995
RightForeArm  -19.0958 27.8916 6.96441
RightHand  0.383761 2.78548 5.23395
LeftUpLeg  -13.2165 12.8043 3.79016
LeftLeg  27.9255 -4.11369 -2.00629
LeftFoot  -12.8446 -0.0418791 -9.0326
LeftToes  2.52163e-011 5.65494e-011 -1.09494e-012
999
root  -49.7915 38.2315 -9.21978 175.968 63.0428 177.325
RightUpLeg  -26.948 -12.0377 -6.60618
RightLeg  37.8381 -4.81975 -4.26819
RightFoot  -2.81444 -0.945156 12.3749
RightToes  1.22775e-009 1.2921e-014 -6.02303e-014
Spine  11.3221 -1.48889 -5.99398
Spine1  -0.00198507 -2.0847 0.317169
HEad  -2.27987 -33.5012 6.03321
LeftShoulder1  1.21623 -0.133344 -27.3129
LeftArm  -10.2284 -18.566 -20.5774
LeftForeArm  12.5007 -2.9449 -16.0145
LeftHand  0.339561 -2.81935 -4.5938
RightShoulder  3.73789 3.05334 49.9934
RightArm  47.1958 -15.003 16.8975
RightForeArm  -21.3754 29.5318 7.47937
RightHand  0.488973 2.79981 6.71145
LeftUpLeg  -13.1489 12.4343 4.1375
LeftLeg  29.6795 -4.39387 -2.34804
LeftFoot  -14.9177 -0.189431 -8.9117
LeftToes  2.52163e-011 5.65494e-011 -1.09494e-012
1000
root  -49.2162 37.9665 -9.61279 176.371 62.2583 177.66
RightUpLeg  -27.461 -11.3057 -7.94749
RightLeg  27.2157 -5.24844 -3.14982
RightFoot  -2.43263 -0.981337 12.339
RightToes  1.22775e-009 1.2921e-014 -6.02303e-014
Spine  12.1173 -1.73083 -5.31571
Spine1  0.0186456 -2.27065 0.38589
HEad  -3.67671 -34.0644 6.44634
LeftShoulder1  1.3084 -0.41233 -27.2869
LeftArm  -10.6595 -23.9127 -20.8763
LeftForeArm  13.464 -3.08381 -16.011
LeftHand  0.329977 -3.09355 -4.29226
RightShoulder  3.5401 2.72368 49.8631
RightArm  43.5589 -15.4092 16.8642
RightForeArm  -21.4374 30.601 7.76144
RightHand  0.547252 2.74696 7.58794
LeftUpLeg  -13.4129 11.6099 4.28817
LeftLeg  32.2889 -4.35753 -2.6031
LeftFoot  -17.4741 -0.379275 -9.01705
LeftToes  2.52163e-011 5.65494e-011 -1.09494e-012
